<svg xmlns="http://www.w3.org/2000/svg" version="1.1" xmlns:xlink="http://www.w3.org/1999/xlink" width="1000" height="1000"><g clip-path="url(#SvgjsClipPath1251)"><rect width="1000" height="1000" fill="#ffffff"></rect><g transform="matrix(6.25,0,0,6.25,100,100)"><svg xmlns="http://www.w3.org/2000/svg" version="1.1" xmlns:xlink="http://www.w3.org/1999/xlink" width="128" height="128"><svg width="128" height="128" viewBox="0 0 128 128" fill="none" xmlns="http://www.w3.org/2000/svg">
<path d="M0 12C0 5.37258 5.37258 0 12 0H116C122.627 0 128 5.37258 128 12V116C128 122.627 122.627 128 116 128H12C5.37258 128 0 122.627 0 116V12Z" fill="white"></path>
<path d="M72 64C72 81.6731 57.6731 96 40 96C22.3269 96 8 81.6731 8 64C8 46.3269 22.3269 32 40 32C57.6731 32 72 46.3269 72 64Z" fill="#2F66EC"></path>
<path d="M24 32H72V96H24V32Z" fill="white"></path>
<path d="M88 64C88 81.6731 73.6731 96 56 96C38.3269 96 24 81.6731 24 64C24 46.3269 38.3269 32 56 32C73.6731 32 88 46.3269 88 64Z" fill="#2F66EC"></path>
<path d="M56 32H88V96H56V32Z" fill="white"></path>
<path d="M120 64C120 81.6731 105.673 96 88 96C70.3269 96 56 81.6731 56 64C56 46.3269 70.3269 32 88 32C105.673 32 120 46.3269 120 64Z" fill="#2F66EC"></path>
</svg></svg></g></g><defs><clipPath id="SvgjsClipPath1251"><rect width="1000" height="1000" x="0" y="0" rx="300" ry="300"></rect></clipPath></defs></svg>